<?xml version="1.0" encoding="UTF-8" standalone="no"?>
<svg
   xmlns:dc="http://purl.org/dc/elements/1.1/"
   xmlns:cc="http://creativecommons.org/ns#"
   xmlns:rdf="http://www.w3.org/1999/02/22-rdf-syntax-ns#"
   xmlns:svg="http://www.w3.org/2000/svg"
   xmlns="http://www.w3.org/2000/svg"
   xmlns:sodipodi="http://sodipodi.sourceforge.net/DTD/sodipodi-0.dtd"
   xmlns:inkscape="http://www.inkscape.org/namespaces/inkscape"
   width="308.03412"
   height="64.32634"
   viewBox="0 0 81.500698 17.019676"
   version="1.1"
   id="svg23"
   inkscape:version="1.0.2 (e86c870879, 2021-01-15, custom)"
   sodipodi:docname="BigLogo.svg">
  <defs
     id="defs17" />
  <sodipodi:namedview
     id="base"
     pagecolor="#ffffff"
     bordercolor="#666666"
     borderopacity="1.0"
     inkscape:pageopacity="0.0"
     inkscape:pageshadow="2"
     inkscape:zoom="2.8"
     inkscape:cx="138.01807"
     inkscape:cy="72.128853"
     inkscape:document-units="mm"
     inkscape:current-layer="text863"
     inkscape:document-rotation="0"
     showgrid="false"
     fit-margin-top="0"
     fit-margin-left="0"
     fit-margin-right="0"
     fit-margin-bottom="0"
     inkscape:window-width="1920"
     inkscape:window-height="1001"
     inkscape:window-x="-9"
     inkscape:window-y="-9"
     inkscape:window-maximized="1"
     units="px" />
  <metadata
     id="metadata20">
    <rdf:RDF>
      <cc:Work
         rdf:about="">
        <dc:format>image/svg+xml</dc:format>
        <dc:type
           rdf:resource="http://purl.org/dc/dcmitype/StillImage" />
        <dc:title />
      </cc:Work>
    </rdf:RDF>
  </metadata>
  <g
     inkscape:label="Layer 1"
     inkscape:groupmode="layer"
     id="layer1"
     transform="translate(-16.666457,-154.18712)">
    <g
       aria-label="Data To Dev Collective"
       id="text863"
       style="font-style:normal;font-weight:normal;font-size:10.1115px;line-height:0.85;font-family:sans-serif;letter-spacing:-0.690116px;fill:#000000;fill-opacity:1;stroke:none;stroke-width:0.252789">
      <g
         id="g953">
        <g
           id="g105"
           transform="translate(6.4255953,0.46565325)">
          <polyline
             points="7 8 3 12 7 16"
             id="polyline38"
             style="fill:none;stroke:#000000;stroke-width:1.5;stroke-linecap:round;stroke-linejoin:round"
             transform="matrix(0.72986599,0,0,0.70153355,8.5986405,153.81291)"
             inkscape:export-xdpi="96"
             inkscape:export-ydpi="96" />
          <polyline
             points="17 8 21 12 17 16"
             id="polyline40"
             style="fill:none;stroke:#000000;stroke-width:1.5;stroke-linecap:round;stroke-linejoin:round"
             transform="matrix(0.72986599,0,0,0.70153355,22.249632,153.81291)"
             inkscape:export-xdpi="96"
             inkscape:export-ydpi="96" />
          <line
             x1="33.526089"
             y1="156.61905"
             x2="30.606627"
             y2="167.84358"
             id="line42"
             style="fill:none;stroke:#000000;stroke-width:1.07334;stroke-linecap:round;stroke-linejoin:round"
             inkscape:export-xdpi="96"
             inkscape:export-ydpi="96" />
          <path
             d="m 20.9611,163.79916 1.91064,-3.08855"
             id="path78"
             style="fill:none;stroke:#000000;stroke-width:1.01021;stroke-linecap:round;stroke-linejoin:round" />
          <circle
             cx="16.861002"
             cy="160.88437"
             r="1.3469443"
             id="circle70"
             style="fill:none;stroke:#000000;stroke-width:1.01021;stroke-linecap:round;stroke-linejoin:round" />
          <circle
             cx="23.59572"
             cy="159.53743"
             r="1.3469443"
             id="circle72"
             style="fill:none;stroke:#000000;stroke-width:1.01021;stroke-linecap:round;stroke-linejoin:round" />
          <circle
             cx="20.228359"
             cy="164.9252"
             r="1.3469443"
             id="circle74"
             style="fill:none;stroke:#000000;stroke-width:1.01021;stroke-linecap:round;stroke-linejoin:round" />
          <line
             x1="17.642229"
             y1="161.9754"
             x2="19.218151"
             y2="163.91499"
             id="line76"
             style="fill:none;stroke:#000000;stroke-width:1.01021;stroke-linecap:round;stroke-linejoin:round" />
          <circle
             cx="-62.869499"
             cy="151.26205"
             r="1.3469443"
             id="circle29"
             style="fill:none;stroke:#000000;stroke-width:1.01021;stroke-linecap:round;stroke-linejoin:round"
             transform="rotate(-32.83198)" />
          <line
             x1="25.41152"
             y1="160.11002"
             x2="27.787317"
             y2="160.88536"
             id="line31"
             style="fill:none;stroke:#000000;stroke-width:1.01021;stroke-linecap:round;stroke-linejoin:round" />
        </g>
        <g
           id="g909">
          <path
             d="m 47.020346,161.86647 v -7.67935 h 2.459116 q 1.930623,0 2.976826,1.00306 1.046203,0.99228 1.046203,2.83662 0,1.84433 -1.046203,2.8474 -1.046203,0.99227 -2.976826,0.99227 z m 2.437545,-6.55764 h -1.154059 v 5.43594 h 1.154059 q 2.707186,0 2.707186,-2.71797 0,-2.71797 -2.707186,-2.71797 z"
             style="font-style:normal;font-variant:normal;font-weight:500;font-stretch:normal;font-size:10.7856px;font-family:'Neue Haas Unica';-inkscape-font-specification:'Neue Haas Unica, Medium';font-variant-ligatures:normal;font-variant-caps:normal;font-variant-numeric:normal;font-variant-east-asian:normal;letter-spacing:-0.690116px;stroke-width:0.252789"
             id="path844" />
          <path
             d="m 56.080392,156.2256 q 1.100132,0 1.671768,0.53928 0.582423,0.53928 0.582423,1.60706 v 2.04926 q 0,0.88442 0.140213,1.44527 h -1.110917 q -0.0755,-0.33435 -0.0755,-0.76578 h -0.02157 q -0.603993,0.88442 -1.844337,0.88442 -0.841277,0 -1.3482,-0.45299 -0.506923,-0.46378 -0.506923,-1.17563 0,-0.70107 0.474566,-1.12171 0.485352,-0.42063 1.628626,-0.60399 0.690278,-0.11864 1.477627,-0.16178 v -0.21572 q 0,-1.13248 -1.067775,-1.13248 -0.496137,0 -0.776563,0.25885 -0.280425,0.25886 -0.301997,0.70106 h -1.207987 q 0.04314,-0.8197 0.625565,-1.33741 0.593208,-0.51771 1.660982,-0.51771 z m 1.067775,3.31118 v -0.26964 q -0.701064,0.0431 -1.261915,0.14021 -0.593208,0.0971 -0.841277,0.29121 -0.237283,0.19415 -0.237283,0.57164 0,0.36671 0.248068,0.59321 0.258855,0.21571 0.722636,0.21571 0.625564,0 0.992275,-0.36671 0.215712,-0.2265 0.291211,-0.47457 0.08629,-0.25885 0.08629,-0.70106 z"
             style="font-style:normal;font-variant:normal;font-weight:500;font-stretch:normal;font-size:10.7856px;font-family:'Neue Haas Unica';-inkscape-font-specification:'Neue Haas Unica, Medium';font-variant-ligatures:normal;font-variant-caps:normal;font-variant-numeric:normal;font-variant-east-asian:normal;letter-spacing:-0.690116px;stroke-width:0.252789"
             id="path846" />
          <path
             d="m 61.246849,160.92812 q 0.237284,0 0.377496,-0.0539 v 0.95991 q -0.334353,0.0971 -0.690278,0.0971 -0.873634,0 -1.272701,-0.38828 -0.388281,-0.39906 -0.388281,-1.29427 v -2.9229 h -0.916776 v -0.93834 h 0.916776 v -1.36978 h 1.229558 v 1.36978 h 1.067774 v 0.93834 h -1.067774 v 2.73955 q 0,0.46378 0.17257,0.6687 0.172569,0.19414 0.571636,0.19414 z"
             style="font-style:normal;font-variant:normal;font-weight:500;font-stretch:normal;font-size:10.7856px;font-family:'Neue Haas Unica';-inkscape-font-specification:'Neue Haas Unica, Medium';font-variant-ligatures:normal;font-variant-caps:normal;font-variant-numeric:normal;font-variant-east-asian:normal;letter-spacing:-0.690116px;stroke-width:0.252789"
             id="path848" />
          <path
             d="m 64.06204,156.2256 q 1.100132,0 1.671768,0.53928 0.582423,0.53928 0.582423,1.60706 v 2.04926 q 0,0.88442 0.140212,1.44527 h -1.110916 q -0.0755,-0.33435 -0.0755,-0.76578 h -0.02157 q -0.603993,0.88442 -1.844337,0.88442 -0.841277,0 -1.3482,-0.45299 -0.506923,-0.46378 -0.506923,-1.17563 0,-0.70107 0.474566,-1.12171 0.485352,-0.42063 1.628626,-0.60399 0.690278,-0.11864 1.477627,-0.16178 v -0.21572 q 0,-1.13248 -1.067775,-1.13248 -0.496137,0 -0.776563,0.25885 -0.280425,0.25886 -0.301997,0.70106 h -1.207987 q 0.04314,-0.8197 0.625565,-1.33741 0.593208,-0.51771 1.660982,-0.51771 z m 1.067775,3.31118 v -0.26964 q -0.701064,0.0431 -1.261915,0.14021 -0.593208,0.0971 -0.841277,0.29121 -0.237283,0.19415 -0.237283,0.57164 0,0.36671 0.248068,0.59321 0.258855,0.21571 0.722636,0.21571 0.625564,0 0.992275,-0.36671 0.215712,-0.2265 0.291211,-0.47457 0.08628,-0.25885 0.08628,-0.70106 z"
             style="font-style:normal;font-variant:normal;font-weight:500;font-stretch:normal;font-size:10.7856px;font-family:'Neue Haas Unica';-inkscape-font-specification:'Neue Haas Unica, Medium';font-variant-ligatures:normal;font-variant-caps:normal;font-variant-numeric:normal;font-variant-east-asian:normal;letter-spacing:-0.690116px;stroke-width:0.252789"
             id="path850" />
          <path
             d="m 74.060748,157.01295 q 0.733421,-0.78735 1.973765,-0.78735 1.240344,0 1.962979,0.78735 0.733421,0.77656 0.733421,2.11398 0,1.33741 -0.733421,2.12476 -0.722635,0.77656 -1.962979,0.77656 -1.240344,0 -1.973765,-0.77656 -0.73342,-0.78735 -0.73342,-2.12476 0,-1.33742 0.73342,-2.11398 z m 3.009183,0.70106 q -0.377496,-0.5177 -1.035418,-0.5177 -0.657922,0 -1.035418,0.5177 -0.377495,0.51771 -0.377495,1.41292 0,0.8952 0.377495,1.41291 0.377496,0.51771 1.035418,0.51771 0.657922,0 1.035418,-0.51771 0.377496,-0.51771 0.377496,-1.41291 0,-0.89521 -0.377496,-1.41292 z"
             style="font-style:normal;font-variant:normal;font-weight:500;font-stretch:normal;font-size:10.7856px;font-family:'Neue Haas Unica';-inkscape-font-specification:'Neue Haas Unica, Medium';font-variant-ligatures:normal;font-variant-caps:normal;font-variant-numeric:normal;font-variant-east-asian:normal;letter-spacing:-0.690116px;stroke-width:0.252789"
             id="path854" />
          <path
             d="m 81.190348,161.86647 v -7.67935 h 2.459116 q 1.930623,0 2.976826,1.00306 1.046203,0.99228 1.046203,2.83662 0,1.84433 -1.046203,2.8474 -1.046203,0.99227 -2.976826,0.99227 z m 2.437545,-6.55764 h -1.154059 v 5.43594 h 1.154059 q 2.707186,0 2.707186,-2.71797 0,-2.71797 -2.707186,-2.71797 z"
             style="font-style:normal;font-variant:normal;font-weight:500;font-stretch:normal;font-size:10.7856px;font-family:'Neue Haas Unica';-inkscape-font-specification:'Neue Haas Unica, Medium';font-variant-ligatures:normal;font-variant-caps:normal;font-variant-numeric:normal;font-variant-east-asian:normal;letter-spacing:-0.690116px;stroke-width:0.252789"
             id="path856" />
          <path
             d="m 90.563168,161.12226 q 0.517708,0 0.841276,-0.24806 0.334354,-0.24807 0.420639,-0.65793 h 1.261915 q -0.161784,0.77657 -0.830491,1.29428 -0.668707,0.5177 -1.693339,0.5177 -1.240344,0 -1.952194,-0.80892 -0.701064,-0.80892 -0.701064,-2.15712 0,-1.24034 0.701064,-2.03847 0.71185,-0.79814 1.930622,-0.79814 0.927562,0 1.574698,0.50692 0.657921,0.49614 0.884419,1.35899 0.150998,0.48535 0.150998,1.28349 h -4.023028 q 0.03236,0.88442 0.420638,1.31584 0.399067,0.43142 1.013847,0.43142 z m 0.916776,-3.62396 q -0.366711,-0.36671 -0.938348,-0.36671 -0.571636,0 -0.949132,0.36671 -0.366711,0.36671 -0.44221,1.06778 h 2.771899 q -0.06471,-0.70107 -0.442209,-1.06778 z"
             style="font-style:normal;font-variant:normal;font-weight:500;font-stretch:normal;font-size:10.7856px;font-family:'Neue Haas Unica';-inkscape-font-specification:'Neue Haas Unica, Medium';font-variant-ligatures:normal;font-variant-caps:normal;font-variant-numeric:normal;font-variant-east-asian:normal;letter-spacing:-0.690116px;stroke-width:0.252789"
             id="path858" />
          <path
             d="m 98.167151,156.38739 -1.909051,5.47908 h -1.596269 l -1.909051,-5.47908 h 1.283486 l 0.71185,2.23261 q 0.355925,1.08935 0.701064,2.39441 h 0.02157 q 0.345139,-1.30506 0.701064,-2.39441 l 0.71185,-2.23261 z"
             style="font-style:normal;font-variant:normal;font-weight:500;font-stretch:normal;font-size:10.7856px;font-family:'Neue Haas Unica';-inkscape-font-specification:'Neue Haas Unica, Medium';font-variant-ligatures:normal;font-variant-caps:normal;font-variant-numeric:normal;font-variant-east-asian:normal;letter-spacing:-0.690116px;stroke-width:0.252789"
             id="path860" />
          <path
             d="m 50.029528,163.18231 q 1.488413,0 2.383617,0.79814 0.905991,0.78735 0.959919,2.13555 h -1.930623 q -0.06471,-0.62557 -0.442209,-0.97071 -0.366711,-0.34514 -0.970704,-0.34514 -0.765778,0 -1.207987,0.64714 -0.431424,0.63635 -0.431424,1.74727 0,1.11091 0.431424,1.75805 0.442209,0.63635 1.186416,0.63635 0.603993,0 0.981489,-0.35592 0.388282,-0.35593 0.463781,-1.00307 h 1.952194 q -0.107856,1.4237 -1.013847,2.20027 -0.90599,0.77656 -2.383617,0.77656 -1.660983,0 -2.620901,-1.06777 -0.949133,-1.07856 -0.949133,-2.94447 0,-1.86591 0.959919,-2.93369 0.959918,-1.07856 2.631686,-1.07856 z"
             style="font-style:normal;font-variant:normal;font-weight:800;font-stretch:normal;font-size:10.7856px;font-family:'Neue Haas Unica';-inkscape-font-specification:'Neue Haas Unica, Ultra-Bold';font-variant-ligatures:normal;font-variant-caps:normal;font-variant-numeric:normal;font-variant-east-asian:normal;letter-spacing:0px;stroke-width:0.252789"
             id="path862" />
          <path
             d="m 54.893814,166.16992 q 0.798135,-0.78734 2.146335,-0.78734 1.3482,0 2.135548,0.78734 0.798135,0.78735 0.798135,2.12477 0,1.33741 -0.798135,2.12476 -0.787348,0.78735 -2.135548,0.78735 -1.3482,0 -2.146335,-0.78735 -0.787349,-0.78735 -0.787349,-2.12476 0,-1.33742 0.787349,-2.12477 z m 2.912112,0.99228 q -0.26964,-0.42064 -0.765777,-0.42064 -0.496138,0 -0.776564,0.42064 -0.26964,0.40985 -0.26964,1.13249 0,0.72263 0.26964,1.14327 0.280426,0.40985 0.776564,0.40985 0.496137,0 0.765777,-0.40985 0.280426,-0.42064 0.280426,-1.14327 0,-0.72264 -0.280426,-1.13249 z"
             style="font-style:normal;font-variant:normal;font-weight:800;font-stretch:normal;font-size:10.7856px;font-family:'Neue Haas Unica';-inkscape-font-specification:'Neue Haas Unica, Ultra-Bold';font-variant-ligatures:normal;font-variant-caps:normal;font-variant-numeric:normal;font-variant-east-asian:normal;letter-spacing:0px;stroke-width:0.252789"
             id="path864" />
          <path
             d="m 62.745712,163.35488 v 7.67935 h -1.79041 v -7.67935 z"
             style="font-style:normal;font-variant:normal;font-weight:800;font-stretch:normal;font-size:10.7856px;font-family:'Neue Haas Unica';-inkscape-font-specification:'Neue Haas Unica, Ultra-Bold';font-variant-ligatures:normal;font-variant-caps:normal;font-variant-numeric:normal;font-variant-east-asian:normal;letter-spacing:0px;stroke-width:0.252789"
             id="path866" />
          <path
             d="m 65.851945,163.35488 v 7.67935 h -1.790409 v -7.67935 z"
             style="font-style:normal;font-variant:normal;font-weight:800;font-stretch:normal;font-size:10.7856px;font-family:'Neue Haas Unica';-inkscape-font-specification:'Neue Haas Unica, Ultra-Bold';font-variant-ligatures:normal;font-variant-caps:normal;font-variant-numeric:normal;font-variant-east-asian:normal;letter-spacing:0px;stroke-width:0.252789"
             id="path868" />
          <path
             d="m 69.659241,170.0096 q 0.377496,0 0.625565,-0.18336 0.248068,-0.18335 0.291211,-0.47456 h 1.822766 q -0.172569,0.79813 -0.916776,1.32663 -0.733421,0.52849 -1.801195,0.52849 -1.3482,0 -2.103192,-0.81971 -0.744206,-0.8197 -0.744206,-2.13554 0,-1.25113 0.754992,-2.06005 0.754992,-0.80892 2.070835,-0.80892 0.959918,0 1.639411,0.47456 0.679493,0.46378 0.970704,1.28349 0.215712,0.58242 0.215712,1.52077 h -3.893602 q 0.05393,1.3482 1.067775,1.3482 z m 0,-3.45139 q -0.884419,0 -1.035418,1.08934 h 2.06005 q -0.05393,-0.55006 -0.334354,-0.8197 -0.280425,-0.26964 -0.690278,-0.26964 z"
             style="font-style:normal;font-variant:normal;font-weight:800;font-stretch:normal;font-size:10.7856px;font-family:'Neue Haas Unica';-inkscape-font-specification:'Neue Haas Unica, Ultra-Bold';font-variant-ligatures:normal;font-variant-caps:normal;font-variant-numeric:normal;font-variant-east-asian:normal;letter-spacing:0px;stroke-width:0.252789"
             id="path870" />
          <path
             d="m 76.098223,165.38258 q 1.15406,0 1.898266,0.62556 0.754992,0.62557 0.841277,1.63941 h -1.855123 q -0.04314,-0.43142 -0.280426,-0.66871 -0.226498,-0.24806 -0.593208,-0.24806 -0.463781,0 -0.733421,0.40985 -0.258854,0.40985 -0.258854,1.14327 0,0.74421 0.258854,1.15406 0.26964,0.40985 0.744207,0.40985 0.36671,0 0.593208,-0.26964 0.237283,-0.26964 0.258854,-0.7442 h 1.865909 q -0.08629,1.08934 -0.830491,1.73648 -0.733421,0.63635 -1.898266,0.63635 -1.305058,0 -2.092406,-0.78735 -0.776564,-0.79813 -0.776564,-2.13555 0,-1.32663 0.776564,-2.11398 0.776563,-0.78734 2.08162,-0.78734 z"
             style="font-style:normal;font-variant:normal;font-weight:800;font-stretch:normal;font-size:10.7856px;font-family:'Neue Haas Unica';-inkscape-font-specification:'Neue Haas Unica, Ultra-Bold';font-variant-ligatures:normal;font-variant-caps:normal;font-variant-numeric:normal;font-variant-east-asian:normal;letter-spacing:0px;stroke-width:0.252789"
             id="path872" />
          <path
             d="m 82.526429,169.7076 q 0.215712,0 0.399067,-0.0539 v 1.3482 q -0.431424,0.11865 -0.90599,0.11865 -1.035418,0 -1.509984,-0.43143 -0.463781,-0.43142 -0.463781,-1.39134 v -2.43755 h -0.852062 v -1.30505 h 0.852062 v -1.47763 h 1.790409 v 1.47763 h 1.035418 v 1.30505 H 81.83615 v 2.0277 q 0,0.44221 0.161784,0.63635 0.161784,0.18335 0.528495,0.18335 z"
             style="font-style:normal;font-variant:normal;font-weight:800;font-stretch:normal;font-size:10.7856px;font-family:'Neue Haas Unica';-inkscape-font-specification:'Neue Haas Unica, Ultra-Bold';font-variant-ligatures:normal;font-variant-caps:normal;font-variant-numeric:normal;font-variant-east-asian:normal;letter-spacing:0px;stroke-width:0.252789"
             id="path874" />
          <path
             d="m 85.643449,165.55515 v 5.47908 H 83.85304 v -5.47908 z m 0,-2.20027 v 1.41292 H 83.85304 v -1.41292 z"
             style="font-style:normal;font-variant:normal;font-weight:800;font-stretch:normal;font-size:10.7856px;font-family:'Neue Haas Unica';-inkscape-font-specification:'Neue Haas Unica, Ultra-Bold';font-variant-ligatures:normal;font-variant-caps:normal;font-variant-numeric:normal;font-variant-east-asian:normal;letter-spacing:0px;stroke-width:0.252789"
             id="path876" />
          <path
             d="m 92.136359,165.55515 -1.768838,5.47908 h -2.383618 l -1.768838,-5.47908 h 1.898265 l 0.53928,2.00612 q 0.301997,1.20798 0.506924,2.3189 h 0.02157 q 0.172569,-0.95992 0.517709,-2.3189 l 0.528494,-2.00612 z"
             style="font-style:normal;font-variant:normal;font-weight:800;font-stretch:normal;font-size:10.7856px;font-family:'Neue Haas Unica';-inkscape-font-specification:'Neue Haas Unica, Ultra-Bold';font-variant-ligatures:normal;font-variant-caps:normal;font-variant-numeric:normal;font-variant-east-asian:normal;letter-spacing:0px;stroke-width:0.252789"
             id="path878" />
          <path
             d="m 95.12394,170.0096 q 0.377496,0 0.625564,-0.18336 0.248069,-0.18335 0.291212,-0.47456 h 1.822766 q -0.17257,0.79813 -0.916776,1.32663 -0.733421,0.52849 -1.801195,0.52849 -1.3482,0 -2.103192,-0.81971 -0.744206,-0.8197 -0.744206,-2.13554 0,-1.25113 0.754991,-2.06005 0.754992,-0.80892 2.070836,-0.80892 0.959918,0 1.639411,0.47456 0.679493,0.46378 0.970704,1.28349 0.215712,0.58242 0.215712,1.52077 h -3.893602 q 0.05393,1.3482 1.067775,1.3482 z m 0,-3.45139 q -0.88442,0 -1.035418,1.08934 h 2.06005 q -0.05393,-0.55006 -0.334354,-0.8197 -0.280426,-0.26964 -0.690278,-0.26964 z"
             style="font-style:normal;font-variant:normal;font-weight:800;font-stretch:normal;font-size:10.7856px;font-family:'Neue Haas Unica';-inkscape-font-specification:'Neue Haas Unica, Ultra-Bold';font-variant-ligatures:normal;font-variant-caps:normal;font-variant-numeric:normal;font-variant-east-asian:normal;letter-spacing:0px;stroke-width:0.252789"
             id="path880" />
          <path
             d="m 72.888523,160.92812 q 0.237284,0 0.377496,-0.0539 v 0.95991 q -0.334353,0.0971 -0.690278,0.0971 -0.873634,0 -1.272701,-0.38828 -0.388281,-0.39906 -0.388281,-1.29427 v -2.9229 h -0.916776 v -0.93834 h 0.916776 v -1.36978 h 1.229558 v 1.36978 h 1.067774 v 0.93834 h -1.067774 v 2.73955 q 0,0.46378 0.17257,0.6687 0.172569,0.19414 0.571636,0.19414 z"
             style="font-style:normal;font-variant:normal;font-weight:500;font-stretch:normal;font-size:10.7856px;font-family:'Neue Haas Unica';-inkscape-font-specification:'Neue Haas Unica, Medium';font-variant-ligatures:normal;font-variant-caps:normal;font-variant-numeric:normal;font-variant-east-asian:normal;letter-spacing:-0.690116px;stroke-width:0.252789"
             id="path867" />
        </g>
      </g>
    </g>
  </g>
</svg>
